<?xml version="1.0" encoding="utf-8"?>
<!-- Generator: Adobe Illustrator 27.5.0, SVG Export Plug-In . SVG Version: 6.00 Build 0)  -->
<svg version="1.1" xmlns="http://www.w3.org/2000/svg" xmlns:xlink="http://www.w3.org/1999/xlink" x="0px" y="0px"
	 viewBox="0 0 500 500" style="enable-background:new 0 0 500 500;" xml:space="preserve">
<g id="BACKGROUND">
	<rect x="0" style="fill:#292438;" width="499.999" height="500"/>
</g>
<g id="OBJECTS">
	<g>
		<g>
			<g>
				
					<text transform="matrix(1 0 0 1 140.4459 404.6726)" style="fill:#FFFFFF; font-family:'LeagueSpartan-Bold'; font-size:31.3205px; letter-spacing:3;">ACCOUNTING</text>
			</g>
			
				<text transform="matrix(1 0 0 1 151.7442 421.989)" style="fill:#E85C0F; font-family:'Lato-Regular'; font-size:11.6264px; letter-spacing:2;">your tag line goes here</text>
		</g>
		<g>
			<g>
				<linearGradient id="SVGID_1_" gradientUnits="userSpaceOnUse" x1="178.8535" y1="320.9892" x2="178.8535" y2="246.1965">
					<stop  offset="0" style="stop-color:#FF4D00"/>
					<stop  offset="1" style="stop-color:#FF654A"/>
				</linearGradient>
				<polygon style="fill:url(#SVGID_1_);" points="165.943,241.309 160.132,247.119 160.132,300.338 197.575,300.338 
					197.575,272.942 				"/>
			</g>
			<g>
				
					<linearGradient id="SVGID_00000062874224477054387140000015506351130013284007_" gradientUnits="userSpaceOnUse" x1="234.6506" y1="339.534" x2="234.6506" y2="250.4273">
					<stop  offset="0" style="stop-color:#FF4D00"/>
					<stop  offset="1" style="stop-color:#FF654A"/>
				</linearGradient>
				<polygon style="fill:url(#SVGID_00000062874224477054387140000015506351130013284007_);" points="215.929,282.048 
					215.929,314.931 253.372,314.931 253.372,244.604 				"/>
			</g>
			
				<linearGradient id="SVGID_00000054972074976918843000000010978587098908905899_" gradientUnits="userSpaceOnUse" x1="290.4478" y1="335.301" x2="290.4478" y2="212.6983">
				<stop  offset="0" style="stop-color:#FF4D00"/>
				<stop  offset="1" style="stop-color:#FF654A"/>
			</linearGradient>
			<polygon style="fill:url(#SVGID_00000054972074976918843000000010978587098908905899_);" points="293.289,204.686 
				271.726,226.25 271.726,301.449 309.169,301.449 309.169,220.566 			"/>
			
				<linearGradient id="SVGID_00000160168051854062814730000007864514825603788727_" gradientUnits="userSpaceOnUse" x1="151.442" y1="253.0092" x2="291.3408" y2="147.3777">
				<stop  offset="0" style="stop-color:#FFFFFF"/>
				<stop  offset="0.3135" style="stop-color:#FCFDFF"/>
				<stop  offset="0.5542" style="stop-color:#F2F6FF"/>
				<stop  offset="0.7706" style="stop-color:#E2EAFF"/>
				<stop  offset="0.9717" style="stop-color:#CBDAFF"/>
				<stop  offset="1" style="stop-color:#C7D7FF"/>
			</linearGradient>
			<polygon style="fill:url(#SVGID_00000160168051854062814730000007864514825603788727_);" points="133.99,249.219 
				118.976,234.205 165.943,187.24 211.305,232.602 288.443,155.463 303.457,170.476 211.305,262.63 165.943,217.267 			"/>
			
				<linearGradient id="SVGID_00000098208693946364050710000011674014221037337790_" gradientUnits="userSpaceOnUse" x1="250" y1="359.7172" x2="250" y2="74.8894">
				<stop  offset="0" style="stop-color:#FFAD20"/>
				<stop  offset="1" style="stop-color:#FF654A"/>
			</linearGradient>
			<path style="fill:url(#SVGID_00000098208693946364050710000011674014221037337790_);" d="M341.208,268.075
				c12.389-19.854,19.428-43.391,19.078-68.599c-0.949-68.346-56.879-123.98-125.229-124.582
				c-70.7-0.623-128.136,56.813-127.514,127.513c0.602,68.381,56.286,124.326,124.664,125.231
				c25.227,0.334,48.778-6.732,68.636-19.154l42.868,42.868c11.153,11.153,29.235,11.153,40.388,0l0,0
				c11.153-11.153,11.153-29.235,0-40.388L341.208,268.075z M235.858,303.425c-57.964,1.075-105.17-46.13-104.095-104.095
				c1.013-54.627,45.588-99.203,100.216-100.216c57.964-1.075,105.17,46.131,104.095,104.095
				C335.06,257.837,290.485,302.412,235.858,303.425z"/>
			
				<linearGradient id="SVGID_00000122702978918406839740000016518573524292455602_" gradientUnits="userSpaceOnUse" x1="340.2675" y1="117.1958" x2="281.4785" y2="177.5567">
				<stop  offset="0.1911" style="stop-color:#C7D7FF"/>
				<stop  offset="0.248" style="stop-color:#DAE4FF"/>
				<stop  offset="0.323" style="stop-color:#EBF0FF"/>
				<stop  offset="0.4166" style="stop-color:#F6F9FF"/>
				<stop  offset="0.5477" style="stop-color:#FDFEFF"/>
				<stop  offset="0.9119" style="stop-color:#FFFFFF"/>
			</linearGradient>
			<polygon style="fill:url(#SVGID_00000122702978918406839740000016518573524292455602_);" points="257.544,144.9 314.02,201.376 
				332.181,126.739 			"/>
			
				<linearGradient id="SVGID_00000032647180147410089100000014958736608159141513_" gradientUnits="userSpaceOnUse" x1="349.8125" y1="245.9254" x2="315.8596" y2="309.587">
				<stop  offset="0" style="stop-color:#FFAD20"/>
				<stop  offset="1" style="stop-color:#FF654A"/>
			</linearGradient>
			<path style="fill:url(#SVGID_00000032647180147410089100000014958736608159141513_);" d="M341.005,268.33
				c-10.147,16.099-23.816,29.784-39.903,39.949c-0.086,0.068-0.174,0.139-0.259,0.206c5.616,5.616,11.232,11.232,16.848,16.848
				c13.626-14.224,23.966-31.621,29.806-50.969l-6.289-6.289C341.142,268.159,341.071,268.245,341.005,268.33z"/>
		</g>
	</g>
</g>
</svg>
